# xmcd CD database file
#
# Track frame offsets:
#	150
#	22459
#	37921
#	50108
#	68723
#	83168
#	101304
#	120878
#	132206
#	144226
#	158664
#	169657
#	180742
#	195076
#	212883
#
# Disc length: 3043 seconds
#
# Revision: 0
# Processed by: cddbd v1.5.2PL0 Copyright (c) Steve Scherf et al.
# Submitted via: CDex 2.18
#
DISCID=c10be10f
DTITLE=Eric 'Two Scoops' Moore - Music Cafe
DYEAR=2002
DGENRE=Blues
TTITLE0=Music Cafe
TTITLE1=Left Handed
TTITLE2=Makin' Bones
TTITLE3=Keep Me In Mind
TTITLE4=Put Your Hands Together
TTITLE5=Big Ugly Fella
TTITLE6=Clean Clean Clean
TTITLE7=Pulling My Chain
TTITLE8=All The Things I Didn't Do
TTITLE9=Let's Eat
TTITLE10=We'll Be Found
TTITLE11=Santa Whatcha Doin'
TTITLE12=Uncle Red
TTITLE13=Hamburger Time
TTITLE14=Don't Have To Drink It Here
EXTD=YEAR: 2002
EXTT0=
EXTT1=
EXTT2=
EXTT3=
EXTT4=
EXTT5=
EXTT6=
EXTT7=
EXTT8=
EXTT9=
EXTT10=
EXTT11=
EXTT12=
EXTT13=
EXTT14=
PLAYORDER=
